<?xml version="1.0" standalone="no"?>
<!DOCTYPE svg PUBLIC "-//W3C//DTD SVG 20010904//EN"
 "http://www.w3.org/TR/2001/REC-SVG-20010904/DTD/svg10.dtd">
<svg version="1.0" xmlns="http://www.w3.org/2000/svg"
 width="300.000000pt" height="168.000000pt" viewBox="0 0 300.000000 168.000000"
 preserveAspectRatio="xMidYMid meet">
<metadata>
Created by potrace 1.15, written by Peter Selinger 2001-2017
</metadata>
<g transform="translate(0.000000,168.000000) scale(0.100000,-0.100000)"
fill="#000000" stroke="none">
<path d="M1504 1415 c-9 -21 -12 -44 -8 -54 12 -25 12 -73 0 -61 -26 26 -120
3 -129 -31 -5 -17 -16 -19 -101 -19 -93 0 -97 1 -108 25 -6 14 -17 25 -23 25
-15 0 -40 -74 -31 -89 5 -7 50 -11 127 -11 l120 0 -30 -42 c-40 -57 -80 -202
-63 -229 11 -18 9 -19 -35 -19 -27 1 -118 7 -203 14 -102 9 -161 10 -173 4
-22 -11 -119 -5 -197 12 -30 7 -71 12 -90 11 -19 -1 -153 -3 -298 -3 l-262 -1
0 -474 0 -473 851 0 c753 0 850 2 839 15 -7 8 -16 12 -21 9 -5 -3 -6 2 -3 10
5 12 10 13 39 0 54 -22 61 -17 26 20 -21 21 -29 36 -22 41 14 8 4 25 -15 25
-9 0 -12 -5 -8 -12 10 -17 -38 23 -49 40 -5 7 -23 22 -40 34 -34 21 -33 21 26
-2 20 -8 37 -18 37 -23 0 -4 5 -5 10 -2 6 3 10 1 10 -4 0 -6 18 -18 40 -27 22
-9 40 -19 40 -23 0 -4 19 -6 42 -6 25 0 51 -6 61 -15 9 -8 25 -15 35 -15 9 0
17 -6 17 -14 0 -8 8 -15 18 -17 10 -1 27 -10 36 -18 15 -14 44 -16 170 -15 83
0 165 4 181 9 17 5 32 5 35 0 3 -5 132 -9 288 -10 278 0 282 0 262 19 -11 10
-31 22 -45 26 l-25 8 24 -20 23 -19 -28 1 c-19 0 -29 5 -29 15 0 8 -8 16 -19
18 -11 2 -16 0 -12 -6 3 -6 2 -13 -3 -16 -5 -3 -12 1 -15 9 -3 9 -17 20 -31
25 -15 6 -25 17 -24 27 1 17 2 17 6 1 2 -10 13 -18 24 -18 13 0 18 5 14 13 -4
6 0 4 8 -6 10 -12 16 -14 19 -6 3 9 9 9 25 0 12 -6 29 -11 38 -11 10 0 34 -14
55 -30 21 -17 50 -30 64 -30 l26 0 0 250 0 250 -22 1 c-13 1 -81 3 -153 6
-157 5 -179 8 -275 31 -53 14 -77 16 -82 8 -5 -8 -8 -7 -8 1 0 8 -7 10 -17 6
-16 -6 -16 -5 -4 11 8 9 22 15 32 13 12 -3 16 0 12 9 -4 10 -22 15 -57 15 -77
0 -106 3 -106 11 0 12 39 19 57 11 10 -5 47 -6 83 -2 l65 6 -78 1 c-49 1 -76
6 -72 12 9 14 -29 12 -43 -2 -9 -9 -12 -9 -12 0 0 7 -14 12 -32 12 l-33 0 30
-20 c35 -23 13 -27 -29 -5 -15 8 -42 16 -60 16 l-31 1 30 7 30 7 -27 7 c-14 4
-34 4 -44 0 -10 -4 -21 0 -28 9 -11 15 -42 22 -143 34 -29 4 -50 10 -47 15 3
5 0 9 -5 9 -6 0 -11 -5 -11 -10 0 -6 -18 -10 -44 -8 -44 3 -55 18 -13 18 14 0
18 3 11 10 -7 7 -27 7 -60 1 -52 -10 -68 -6 -44 9 15 10 -40 14 -165 13 -27
-1 -44 1 -37 4 6 3 12 9 12 15 0 6 -7 7 -16 4 -9 -4 -22 -2 -28 3 -9 7 -127
20 -233 25 -13 0 -23 4 -23 9 0 4 -9 7 -21 7 -11 0 -17 5 -14 10 6 10 -20 15
-58 12 -15 -2 -77 23 -77 31 0 1 27 1 60 0 44 -1 58 2 53 10 -4 7 0 6 10 -2
14 -11 20 -11 34 0 11 9 14 10 9 2 -5 -9 -2 -11 8 -7 9 4 41 -11 77 -36 78
-53 92 -51 103 22 8 52 11 57 40 62 38 8 90 52 83 71 -3 7 1 16 9 19 8 3 17
-1 20 -9 8 -19 22 -19 26 0 2 12 7 12 24 2 67 -38 86 -48 89 -45 11 11 -37
145 -64 178 -17 21 -31 42 -31 45 0 6 130 1 205 -7 25 -2 30 1 31 20 1 23 -35
58 -46 44 -3 -4 -17 -15 -32 -24 -21 -14 -40 -16 -93 -11 -61 6 -66 5 -72 -15
-6 -25 -74 -53 -81 -33 -2 6 -8 11 -13 11 -4 0 -6 -7 -3 -15 9 -23 -18 -9 -40
22 -18 25 -18 25 0 15 13 -7 25 -7 37 0 14 7 17 7 13 -1 -11 -17 20 -24 45
-10 22 12 22 12 -12 31 -20 11 -25 16 -11 13 12 -4 22 -2 22 3 0 6 -13 9 -30
8 -21 -2 -27 1 -19 10 6 8 5 14 -6 18 -11 4 -14 13 -9 31 5 19 1 30 -11 39
-23 17 -13 51 13 42 15 -5 15 -5 2 6 -9 7 -14 20 -12 30 7 34 -19 29 -34 -7z
m-74 -256 c11 -8 12 -12 3 -16 -16 -6 -17 -43 -2 -43 6 0 8 -15 4 -44 -5 -29
-3 -46 5 -51 12 -7 11 -137 -1 -157 -5 -7 -19 -4 -43 11 -43 27 -45 33 -8 26
22 -4 24 -4 7 4 -11 5 -30 10 -42 10 -13 1 -32 10 -43 21 -11 11 -23 20 -27
20 -9 0 -9 0 1 65 19 118 90 194 146 154z m892 -949 c35 -3 67 -14 62 -21 -3
-5 0 -9 5 -9 6 0 11 6 11 13 0 8 2 9 8 1 8 -13 82 -46 82 -37 0 3 6 0 14 -6 7
-6 25 -11 40 -11 14 0 37 0 52 0 14 0 23 -4 20 -9 -3 -5 10 -11 29 -14 32 -5
65 -26 65 -41 0 -4 -16 0 -35 8 -19 8 -35 13 -35 10 0 -3 -6 -2 -12 3 -7 4
-32 8 -55 9 -38 0 -41 -1 -32 -18 5 -10 17 -18 25 -18 9 0 12 -5 8 -11 -5 -9
1 -10 22 -5 19 4 24 3 15 -3 -9 -6 3 -10 40 -13 30 -3 58 -1 63 4 17 14 29 9
16 -7 -11 -13 -10 -14 5 -9 12 5 16 4 12 -3 -10 -15 -137 -8 -177 10 -19 8
-42 18 -50 20 -11 4 -11 6 3 6 17 1 17 2 2 17 -9 9 -14 22 -12 29 6 14 -81 39
-105 30 -9 -4 -18 0 -21 9 -4 9 -18 16 -32 16 -17 0 -24 -4 -19 -12 5 -7 3 -8
-5 -3 -7 4 -11 18 -8 32 l4 24 -19 -21 c-10 -11 -24 -20 -31 -20 -7 0 -6 4 3
10 13 8 12 10 -2 10 -21 0 -24 16 -5 24 6 3 -1 2 -18 -1 l-30 -6 25 20 c21 18
27 19 45 7 11 -7 23 -13 27 -14z"/>
</g>
</svg>
